<?xml version="1.0" encoding="UTF-8" standalone="no"?>
<!-- Created with Inkscape (http://www.inkscape.org/) -->

<svg
   width="210mm"
   height="297mm"
   viewBox="0 0 210 297"
   version="1.1"
   id="svg14818"
   xml:space="preserve"
   inkscape:version="1.2.1 (9c6d41e410, 2022-07-14)"
   sodipodi:docname="crow.svg"
   xmlns:inkscape="http://www.inkscape.org/namespaces/inkscape"
   xmlns:sodipodi="http://sodipodi.sourceforge.net/DTD/sodipodi-0.dtd"
   xmlns="http://www.w3.org/2000/svg"
   xmlns:svg="http://www.w3.org/2000/svg"><sodipodi:namedview
     id="namedview14820"
     pagecolor="#ffffff"
     bordercolor="#000000"
     borderopacity="0.25"
     inkscape:showpageshadow="2"
     inkscape:pageopacity="0.0"
     inkscape:pagecheckerboard="0"
     inkscape:deskcolor="#d1d1d1"
     inkscape:document-units="mm"
     showgrid="false"
     inkscape:zoom="5.0495043"
     inkscape:cx="178.92846"
     inkscape:cy="303.7922"
     inkscape:window-width="2560"
     inkscape:window-height="1377"
     inkscape:window-x="1912"
     inkscape:window-y="-8"
     inkscape:window-maximized="1"
     inkscape:current-layer="layer1" /><defs
     id="defs14815" /><g
     inkscape:label="Layer 1"
     inkscape:groupmode="layer"
     id="layer1"><path
       style="fill:none;stroke:#eb0000;stroke-width:0.499999"
       d="m 24.627005,73.461831 5.763767,-3.24867 7.754887,-0.838364 3.039075,-0.733571 5.134994,-2.200711 6.602132,0.628774 8.907642,6.18295 3.66785,5.868564 1.78153,6.497336 -6.706931,3.772649 -5.030195,3.982238 -4.506219,2.934282 -9.746007,-6.392542 0.733571,-3.248668 -3.143872,-8.278865 -3.667852,-2.410304 -8.278866,-1.362345 -0.73357,-0.733571 2.095915,-1.571937 10.898759,1.047959 1.047959,0.733571 2.410301,-2.5151 1.78153,0.314388 1.67673,-1.571937 -1.467141,-1.467141 -2.305505,1.467141 -0.104796,0.943163 -2.095915,2.829486 -11.946718,-1.991119 -2.20071,2.095915 -1.467141,0.20959"
       id="path16403" /></g></svg>
