<?xml version="1.0" encoding="UTF-8" standalone="no"?>
<!-- Created with Inkscape (http://www.inkscape.org/) -->

<svg
   width="210mm"
   height="297mm"
   viewBox="0 0 793.70081 1122.5197"
   version="1.1"
   id="svg5"
   xml:space="preserve"
   sodipodi:docname="furby1.svg"
   inkscape:version="1.2.1 (9c6d41e410, 2022-07-14)"
   xmlns:inkscape="http://www.inkscape.org/namespaces/inkscape"
   xmlns:sodipodi="http://sodipodi.sourceforge.net/DTD/sodipodi-0.dtd"
   xmlns="http://www.w3.org/2000/svg"
   xmlns:svg="http://www.w3.org/2000/svg"><sodipodi:namedview
     id="namedview7"
     pagecolor="#ffffff"
     bordercolor="#000000"
     borderopacity="0.25"
     inkscape:showpageshadow="2"
     inkscape:pageopacity="0.0"
     inkscape:pagecheckerboard="0"
     inkscape:deskcolor="#d1d1d1"
     inkscape:document-units="mm"
     showgrid="false"
     inkscape:zoom="2.5247521"
     inkscape:cx="340.42946"
     inkscape:cy="516.09026"
     inkscape:window-width="2560"
     inkscape:window-height="1377"
     inkscape:window-x="1912"
     inkscape:window-y="-8"
     inkscape:window-maximized="1"
     inkscape:current-layer="layer1" /><defs
     id="defs2"><rect
       x="493.51379"
       y="506.1883"
       width="76.443147"
       height="40.003927"
       id="rect2437" /></defs><g
     inkscape:label="Layer 1"
     inkscape:groupmode="layer"
     id="layer1"><path
       style="fill:none;stroke:#eb0000;stroke-width:1.88976"
       d="m 258.63926,482.4236 -44.75687,-33.27059 -29.70589,-41.19216 32.08236,-19.01177 43.56864,-10.29804 51.4902,8.71373 9.50588,7.52549 -8.31765,9.90196 -45.9451,-19.01177 -17.42745,0.79216 -40.7961,11.48628 -22.18039,13.07059 17.42745,2.77255 26.14119,-13.86275 32.87451,-6.73334 29.70589,28.51766 -7.92157,14.25882 -20.2,26.14118 -3.96079,7.12941 -50.30197,-45.15294 -5.94118,-7.92157 -1.98039,3.5647 57.03531,50.30197 38.41961,-5.5451 2.37647,-15.84314 18.61569,-19.80392 21.78432,0.39608 5.94118,-3.56471 8.31764,-4.75294 6.33726,-0.79216 3.96078,-3.16863 8.31765,1.9804 c 0,0 2.37647,1.98039 3.96079,1.98039 1.58431,0 10.69412,-1.18824 10.69412,-1.18824 l 5.54509,4.75294 5.5451,1.18824 19.40785,3.56471 13.86275,11.48627 8.71372,16.6353 c 0,0 -1.58431,15.44706 -2.37647,17.03137 -0.79216,1.58432 -5.5451,12.27844 -6.73333,14.65491 -1.18824,2.37647 -16.23922,12.67451 -16.23922,12.67451 l -10.29804,2.37647 0.79216,9.10981 -8.71373,4.35686 -3.96079,9.1098 -4.75294,7.52549 -11.09019,4.75295 -18.61569,-2.77255 -11.88236,-9.10981 -1.18823,-9.50588 7.52549,5.5451 17.82353,5.14902 17.03137,-5.14902 7.92157,-6.73334 v -5.94117 l -11.48627,-2.37648 -0.39608,3.16863 7.52549,4.35687 -10.69412,-4.35687 -19.80392,0.79216 -9.10981,5.5451 5.94118,-7.92157 24.95294,-1.98039 h 13.46667 l -5.94117,-10.29804 -11.48628,-7.12942 -11.88236,-1.98039 -11.88235,8.71373 -7.52549,3.16863 -2.37647,9.1098 -2.37647,12.27843 -9.10981,-6.33725 0.39608,-10.29804 -9.50588,-3.56471 -20.59608,-13.07059 -5.5451,-20.99216 h 10.69412 v -9.90196 l 13.07059,-15.44706 12.27843,-2.77255 23.36863,5.94118 2.37647,9.1098 2.77255,11.0902 -11.88235,-11.48628 -13.46667,-3.16863 -17.03138,3.96079 -5.94118,5.94118 -3.16862,13.46667 10.69412,11.09019 15.05098,3.56471 20.59608,-10.29804 1.18823,-5.94118 3.56471,5.14902 -4.75294,5.94118 -12.67451,6.73333 -17.82353,-0.79215 -12.27844,-6.33726 -5.94117,-7.12941 -0.79216,-4.75294 13.46667,-4.35687 3.96078,10.29804 10.29804,3.56471 9.10981,-3.56471 5.94118,-6.33725 v -9.10981 l -6.73334,-8.71372 -11.48627,-1.58432 -9.90197,6.73334 -2.37647,4.75294 11.88236,3.16863 0.39608,3.5647 7.92156,0.39608 1.18824,-5.14902 -5.14902,-2.37647 -3.56471,0.39608 -9.90196,-1.98039 17.42745,-10.29805 19.01177,13.07059 19.80393,1.18824 1.98039,12.67451 7.92157,4.35687 21.78431,2.37647 10.69412,-9.90197 4.35687,-8.71372 -1.18824,-7.52549 -9.1098,-7.92157 -14.65491,-3.16863 -16.63529,2.77255 -4.75295,2.77255 7.12942,8.71372 0.39608,10.29804 9.1098,6.33726 11.88236,-1.58431 7.92157,-7.12942 0.39607,-9.50588 -6.33725,-8.31765 -16.6353,0.79216 -3.96078,5.14902 8.31764,5.94118 0.39608,3.16862 6.33726,1.18824 3.96078,-4.75294 -7.12941,-3.16863 -3.16863,1.18824 -8.71372,-4.75295 -8.71373,-5.14902 -3.96078,5.94118 v -7.52549 l 9.50588,-9.10981 10.69412,-3.16862 18.21961,4.35686 8.71372,7.92157 3.56471,5.94118 10.69412,3.96078 41.98432,16.6353 -5.94118,-17.42746 12.27844,-6.73333 18.61568,-15.05098 28.51765,-27.7255 c 0,0 -10.29804,-7.92157 -11.88235,-7.92157 -1.58431,0 -42.77648,3.56471 -42.77648,3.56471 l -21.38823,14.25883 13.86274,33.27059 -19.80392,-34.85491 -15.84314,-15.44706 30.89412,-9.50588 18.21961,-5.5451 32.87452,2.37647 30.10196,14.25883 -7.92157,15.44706 -29.70589,30.89412 -23.36863,21.38824 61.39217,-62.18433 1.98039,-11.48627 -32.47843,-15.05098 h -33.66668 l -42.38039,3.5647 -13.46667,5.14902 29.70588,-16.23922 -34.45882,10.29804 -45.54903,-3.5647 -39.21177,2.37647 -17.03137,9.1098 -64.95688,79.2157 0.39608,6.73334 -46.73727,-34.45883 -25.34902,-32.08236 75.651,72.87844 -5.94118,27.32942 9.90196,8.71372 -11.09019,22.57648 -0.79216,11.09019 -5.14902,8.31765 -0.79216,12.67451 -1.18823,18.61569 9.90196,21.38824 16.6353,19.01177 -10.29805,9.10981 1.18824,13.46667 8.71373,4.35687 2.77255,-9.50589 1.98039,-7.92157 9.90196,-10.29805 -10.69412,13.46668 0.39608,15.05098 7.12941,5.5451 19.80393,-1.58431 -5.5451,-9.50589 -3.16863,-9.50588 14.25883,-13.46668 -12.27844,14.25884 9.50589,19.01176 11.88235,-2.77255 13.86275,-14.6549 6.73333,-10.29804 h 55.84707 l 6.73333,15.44706 17.42746,8.71373 9.90196,-4.35687 2.77255,-20.99216 -1.98039,25.34903 9.1098,1.58431 16.23922,-3.5647 3.16863,-11.88236 -9.90197,-13.46668 10.29804,12.67452 -3.16862,14.25883 10.29804,-2.37647 4.35686,-15.05098 -11.0902,-11.88237 17.82353,-14.6549 9.10981,-20.59608 -1.58431,-36.43922 -5.94118,-17.82354 0.39608,-41.98432 2.77255,-25.34902 9.50588,-6.73333"
       id="path2362" /><text
       xml:space="preserve"
       id="text2435"
       style="white-space:pre;shape-inside:url(#rect2437);display:inline;fill:none;stroke:#eb0000;stroke-width:1.88976"><tspan
         x="493.51367"
         y="517.106"
         id="tspan2472">curve: furby</tspan></text></g></svg>
